<svg width="35" height="35" viewBox="0 0 35 35" fill="none" xmlns="http://www.w3.org/2000/svg">
<path fill-rule="evenodd" clip-rule="evenodd" d="M10.9373 1.45837C11.7428 1.45837 12.3957 2.11129 12.3957 2.91671V4.37504H22.604V2.91671C22.604 2.11129 23.2569 1.45837 24.0623 1.45837C24.8678 1.45837 25.5207 2.11129 25.5207 2.91671V4.41104C29.2054 4.77688 32.0832 7.88572 32.0832 11.6667V24.7917C32.0832 28.8188 28.8186 32.0834 24.7915 32.0834H10.2082C6.18109 32.0834 2.9165 28.8188 2.9165 24.7917V11.6667C2.9165 7.88572 5.79429 4.77688 9.479 4.41104V2.91671C9.479 2.11129 10.1319 1.45837 10.9373 1.45837ZM6.08212 10.2084H28.9176C28.317 8.50913 26.6964 7.29171 24.7915 7.29171H10.2082C8.30327 7.29171 6.68271 8.50913 6.08212 10.2084ZM29.1665 13.125H5.83317V24.7917C5.83317 27.208 7.79192 29.1667 10.2082 29.1667H24.7915C27.2077 29.1667 29.1665 27.208 29.1665 24.7917V13.125ZM8.74984 17.5C8.74984 16.6946 9.40275 16.0417 10.2082 16.0417H16.0415C16.8469 16.0417 17.4998 16.6946 17.4998 17.5V23.3334C17.4998 24.1388 16.8469 24.7917 16.0415 24.7917H10.2082C9.40275 24.7917 8.74984 24.1388 8.74984 23.3334V17.5ZM14.5832 18.9584H11.6665V21.875H14.5832V18.9584Z" fill="#0F1419"/>
</svg>
