<svg width="25" height="25" viewBox="0 0 25 25" fill="none" xmlns="http://www.w3.org/2000/svg">
<path d="M24.2137 21.2863L24.2154 21.288C24.5929 21.6621 24.5976 22.2995 24.2129 22.6883C24.2127 22.6885 24.2125 22.6887 24.2123 22.6889L22.6878 24.2136C22.3063 24.5951 21.6736 24.5951 21.2921 24.2136L16.0807 19.0016C15.2727 18.1936 15.2727 16.8835 16.0807 16.0755C16.889 15.2671 18.1996 15.2673 19.0076 16.076L24.2137 21.2863Z" fill="#0F1419" stroke="#EBEEF0"/>
<path d="M3.33477 3.33281C0.995352 5.66711 0.996029 9.45984 3.33456 11.7986C5.67291 14.1372 9.46489 14.138 11.799 11.799C14.1386 9.4648 14.1381 5.67207 11.7997 3.33323L3.33477 3.33281ZM3.33477 3.33281C5.67327 0.994319 9.46542 0.993642 11.7995 3.33302L3.33477 3.33281ZM14.6676 14.667C14.3372 14.9975 13.8013 14.9975 13.4709 14.667L13.2412 14.4373C12.4872 13.6832 11.3575 13.6401 10.4811 14.0332C7.87538 15.2018 4.70838 14.7187 2.57181 12.582C-0.188708 9.81609 -0.192394 5.32976 2.5715 2.57037C5.33668 -0.190292 9.82297 -0.189854 12.5826 2.57007C14.7192 4.70686 15.2023 7.87424 14.0337 10.4803C13.6407 11.3568 13.6837 12.4863 14.4378 13.2405L14.6676 13.4703C14.998 13.8008 14.998 14.3365 14.6676 14.667Z" fill="#0F1419" stroke="#EBEEF0"/>
</svg>
