<svg width="32" height="32" viewBox="0 0 32 32" fill="none" xmlns="http://www.w3.org/2000/svg">
<path fill-rule="evenodd" clip-rule="evenodd" d="M0 7.67768C0 3.43742 3.52102 0 7.86441 0H24.1356C28.479 0 32 3.43742 32 7.67768V23.5625C32 27.8028 28.479 31.2402 24.1356 31.2402H7.86441C3.52101 31.2402 0 27.8028 0 23.5625V7.67768ZM7.86441 2.64748C5.01874 2.64748 2.71186 4.89958 2.71186 7.67768V23.5625C2.71186 26.3407 5.01874 28.5928 7.86441 28.5928H24.1356C26.9813 28.5928 29.2881 26.3407 29.2881 23.5625V7.67768C29.2881 4.89958 26.9813 2.64748 24.1356 2.64748H7.86441Z" fill="#F37036"/>
<path d="M11.6611 9.53117C11.6611 10.8471 10.5684 11.9139 9.22046 11.9139C7.87251 11.9139 6.77979 10.8471 6.77979 9.53117C6.77979 8.21522 7.87251 7.14844 9.22046 7.14844C10.5684 7.14844 11.6611 8.21522 11.6611 9.53117Z" fill="#F37036"/>
<path fill-rule="evenodd" clip-rule="evenodd" d="M14.9152 9.53077C14.9152 8.79969 15.5222 8.20703 16.2711 8.20703H25.4914C26.2403 8.20703 26.8474 8.79969 26.8474 9.53077C26.8474 10.2619 26.2403 10.8545 25.4914 10.8545H16.2711C15.5222 10.8545 14.9152 10.2619 14.9152 9.53077ZM0.813477 16.4142C0.813477 15.6831 1.42055 15.0905 2.16941 15.0905H29.288C30.0369 15.0905 30.644 15.6831 30.644 16.4142C30.644 17.1453 30.0369 17.7379 29.288 17.7379H2.16941C1.42055 17.7379 0.813477 17.1453 0.813477 16.4142Z" fill="#F37036"/>
</svg>
