<svg width="53" height="51" viewBox="0 0 53 51" fill="none" xmlns="http://www.w3.org/2000/svg">
<path d="M8.28125 44.4976C8.28125 45.5154 8.89794 46.2188 9.94571 46.2188H29.7692C27.1088 41.1622 24.1302 36.5498 20.4227 32.2258C16.5867 34.5402 12.5322 36.5414 8.28125 38.1724V44.4976Z" fill="#F15713"/>
<path d="M8.28125 13.0007C12.5214 14.6265 16.5665 16.6219 20.3931 18.9278C24.1134 14.5961 27.3347 9.85073 30.0019 4.78125H10.3472C9.20595 4.78125 8.28125 5.67975 8.28125 6.7883" fill="#69AAB5"/>
<path d="M20.4227 32.2258C23.7166 30.2389 26.8492 28.025 29.7827 25.5862C26.8404 23.1403 23.6965 20.92 20.3945 18.9285C18.3877 21.2655 16.2316 23.4741 13.9565 25.5603C16.2431 27.6581 18.4085 29.8778 20.4227 32.2258Z" fill="#FFB1A2"/>
<path d="M29.782 25.5869C26.8488 28.0254 23.7165 30.2391 20.4229 32.2258C24.1304 36.5498 27.1089 41.1622 29.7693 46.2187L44.6559 46.2188C46.0299 46.2188 46.5376 45.2808 46.0299 44.4386C41.7231 37.2999 36.2132 30.9352 29.782 25.5869Z" fill="#F37036"/>
<path d="M30.0008 4.78339C27.335 9.84979 24.1108 14.5989 20.3932 18.9285C23.6952 20.92 26.8405 23.1403 29.7828 25.5862C36.3107 20.1556 41.8912 13.6807 46.2255 6.411C46.6559 5.68883 46.1045 4.78125 45.2436 4.78125L30.0008 4.78339Z" fill="#85B8C1"/>
<path d="M8.28125 30.2921C10.2504 28.8011 12.1435 27.2238 13.9572 25.561C12.1435 23.8988 10.2504 22.3196 8.28125 20.8306V30.2921Z" fill="#F76F6D"/>
<path d="M8.28125 13.0007C12.5214 14.6266 16.5665 16.622 20.3931 18.9279C18.3864 21.2648 16.2317 23.4743 13.9566 25.5604C12.143 23.8983 10.2503 22.3197 8.28137 20.8308L8.28125 13.0007Z" fill="#F39D90"/>
<path d="M20.4228 32.2258C18.4087 29.8778 16.2431 27.6581 13.9566 25.5603C12.1429 27.2231 10.2504 28.8011 8.28125 30.2921V38.1722C12.5322 36.5412 16.5869 34.5401 20.4228 32.2258Z" fill="#FA8176"/>
</svg>
